<?xml version="1.0" encoding="utf-8"?>
<!-- Generator: Adobe Illustrator 16.0.4, SVG Export Plug-In . SVG Version: 6.00 Build 0)  -->
<!DOCTYPE svg PUBLIC "-//W3C//DTD SVG 1.1//EN" "http://www.w3.org/Graphics/SVG/1.1/DTD/svg11.dtd">
<svg version="1.1" xmlns="http://www.w3.org/2000/svg" xmlns:xlink="http://www.w3.org/1999/xlink" x="0px" y="0px" width="24px"
	 height="24px" viewBox="0 0 24 24" enable-background="new 0 0 24 24" xml:space="preserve">
<symbol  id="ic_x5F_email" viewBox="0 -24 24 24">
	<polygon fill="none" points="24,-24 0,-24 0,0 24,0 	"/>
</symbol>
<g id="Icons">
</g>
<g id="Guide">
	<g id="Icon_14_">
		<g>
			<rect fill="none" width="24" height="24"/>
			<g>
				<path d="M12,2C6.5,2,2,6.5,2,12s4.5,10,10,10s10-4.5,10-10S17.5,2,12,2z M13,19h-2v-2h2V19z M15.1,11.3L14.2,12.2
					C13.4,12.9,13,13.5,13,15h-2v-0.5c0-1.1,0.4-2.1,1.2-2.8l1.2-1.3C13.8,10.1,14,9.6,14,9c0-1.1-0.9-2-2-2c-1.1,0-2,0.9-2,2H8
					c0-2.2,1.8-4,4-4s4,1.8,4,4C16,9.9,15.6,10.7,15.1,11.3z"/>
			</g>
		</g>
	</g>
</g>
<g id="Artboards">
</g>
<g id="X_Layer" display="none">
	<g display="inline">
		<rect fill="none" stroke="#231F20" stroke-miterlimit="10" width="24" height="24"/>
		<line fill="none" stroke="#231F20" stroke-miterlimit="10" x1="0" y1="0" x2="24" y2="24"/>
		<line fill="none" stroke="#231F20" stroke-miterlimit="10" x1="0" y1="24" x2="24" y2="0"/>
	</g>
</g>
</svg>
