<?xml version="1.0" encoding="utf-8"?>
<!-- Generator: Adobe Illustrator 16.0.4, SVG Export Plug-In . SVG Version: 6.00 Build 0)  -->
<!DOCTYPE svg PUBLIC "-//W3C//DTD SVG 1.1//EN" "http://www.w3.org/Graphics/SVG/1.1/DTD/svg11.dtd">
<svg version="1.1" xmlns="http://www.w3.org/2000/svg" xmlns:xlink="http://www.w3.org/1999/xlink" x="0px" y="0px" width="24px"
	 height="24px" viewBox="0 0 24 24" enable-background="new 0 0 24 24" xml:space="preserve">
<symbol  id="ic_x5F_email" viewBox="0 -24 24 24">
	<polygon fill="none" points="24,-24 0,-24 0,0 24,0 	"/>
</symbol>
<g id="Icons">
</g>
<g id="Guide">
	<g id="Icon_4_">
		<g>
			<rect fill="none" width="24" height="24"/>
			<path d="M12,8c1.1,0,2-0.9,2-2s-0.9-2-2-2c-1.1,0-2,0.9-2,2S10.9,8,12,8z M12,10c-1.1,0-2,0.9-2,2c0,1.1,0.9,2,2,2
				c1.1,0,2-0.9,2-2C14,10.9,13.1,10,12,10z M12,16c-1.1,0-2,0.9-2,2s0.9,2,2,2c1.1,0,2-0.9,2-2S13.1,16,12,16z"/>
		</g>
	</g>
</g>
<g id="Artboards">
</g>
<g id="X_Layer" display="none">
	<g display="inline">
		<rect fill="none" stroke="#231F20" stroke-miterlimit="10" width="24" height="24"/>
		<line fill="none" stroke="#231F20" stroke-miterlimit="10" x1="0" y1="0" x2="24" y2="24"/>
		<line fill="none" stroke="#231F20" stroke-miterlimit="10" x1="0" y1="24" x2="24" y2="0"/>
	</g>
</g>
</svg>
