<?xml version="1.0" standalone="no"?>
<!DOCTYPE svg PUBLIC "-//W3C//DTD SVG 1.1//EN" "http://www.w3.org/Graphics/SVG/1.1/DTD/svg11.dtd" >
<svg>
<metadata>
Created by FontForge 20110222 at Mon Mar  7 03:49:27 2011
 By www-data
Generated by Fontographer 4.1
</metadata>
<defs>
<font id="CocaColaii" horiz-adv-x="1000" >
  <font-face 
    font-family="Coca Cola ii"
    font-weight="400"
    font-stretch="normal"
    units-per-em="1000"
    panose-1="2 0 5 3 0 0 0 0 0 0"
    ascent="680"
    descent="-320"
    x-height="321"
    cap-height="603"
    bbox="-242 -320 1504 680"
    underline-thickness="17"
    underline-position="-121"
    unicode-range="U+0020-2122"
  />
    <missing-glyph />
    <glyph glyph-name="space" unicode=" " horiz-adv-x="217" 
 />
    <glyph glyph-name="exclam" unicode="!" horiz-adv-x="342" 
d="M281 340c-28 -60 -53 -128 -76 -204h-38c27 96 44 176 50 241c6 92 21 130 63 130c23 0 41 -20 41 -49c0 -18 -12 -55 -40 -118zM157 -8c-31 0 -47 27 -47 49c0 31 24 58 53 58c28 -2 47 -21 47 -49c0 -33 -23 -58 -53 -58z" />
    <glyph glyph-name="quotedbl" unicode="&#x22;" horiz-adv-x="364" 
d="M282 345c-8 -14 -18 -21 -29 -21c-12 0 -18 6 -18 17c0 10 34 110 42 128c11 21 26 32 45 32c18 0 27 -8 27 -23c0 -11 -9 -32 -67 -133zM193 345c-8 -14 -17 -21 -27 -21c-13 0 -20 6 -20 17c0 8 32 103 43 128c10 21 25 32 45 32c18 0 27 -8 27 -23
c0 -11 -8 -32 -68 -133z" />
    <glyph glyph-name="numbersign" unicode="#" horiz-adv-x="440" 
d="M423 259h-65l-22 -51h45l10 -22l-16 -37h-66l-71 -161h-42l-16 18l63 143h-40l-71 -161h-46l-11 20l62 141h-39l-14 19l18 40h61l23 51h-36l-17 17l15 42h64l63 146h47l9 -22l-54 -124h41l65 146h47l6 -27l-52 -119h43l14 -22zM252 259l-23 -51h40l23 51h-40z" />
    <glyph glyph-name="dollar" unicode="$" horiz-adv-x="490" 
d="M195 53c11 -17 31 -26 59 -28l53 178c-59 54 -75 81 -75 123c0 81 62 131 150 137l15 51h42l-17 -56c51 -15 77 -45 77 -87c0 -39 -25 -69 -56 -69c-23 -1 -43 20 -43 45c0 29 20 52 47 53c-7 9 -19 16 -35 20l-45 -151c50 -42 75 -85 75 -131c0 -82 -65 -145 -157 -152
l-16 -52h-41l15 53c-62 12 -99 49 -99 96c0 40 24 69 56 69c25 0 45 -21 45 -47c0 -27 -23 -50 -50 -52zM314 350c0 -17 7 -34 21 -52l34 121c-35 -10 -54 -34 -55 -69zM340 172l-43 -141c40 13 60 42 62 88c0 18 -7 36 -19 53z" />
    <glyph glyph-name="percent" unicode="%" horiz-adv-x="586" 
d="M498 -7c-55 5 -83 35 -83 92c0 110 71 212 151 212c48 4 83 -37 83 -98c0 -108 -70 -206 -151 -206zM278 -1h-59l294 449h57zM229 152c-47 -5 -83 37 -83 94c0 97 61 209 151 209c49 -4 82 -32 82 -97c0 -105 -71 -206 -150 -206zM567 255c-37 0 -82 -112 -86 -191
c0 -21 6 -31 19 -31c33 0 81 115 84 193c0 20 -5 29 -17 29zM297 414c-34 0 -82 -110 -87 -191c0 -20 7 -31 21 -31c33 0 80 115 84 194c0 19 -6 28 -18 28z" />
    <glyph glyph-name="ampersand" unicode="&#x26;" horiz-adv-x="603" 
d="M497 215c13 -16 19 -35 19 -57c0 -34 -14 -67 -37 -98c0 -122 -91 -217 -208 -217c-66 0 -110 35 -131 104l37 14c18 -50 47 -75 88 -75c58 0 100 38 127 114c-32 -13 -64 -19 -94 -19c-93 0 -159 49 -159 121c0 90 65 150 218 201v27c0 90 51 155 121 155
c44 0 75 -31 75 -74c0 -57 -48 -102 -145 -136l6 -21h96c18 0 33 1 47 3c-7 7 -10 16 -10 25c0 29 28 58 57 58c25 0 45 -20 45 -45c0 -64 -67 -80 -152 -80zM473 440c-50 -6 -71 -46 -71 -121c80 31 104 50 107 90c0 18 -14 31 -36 31zM431 213c9 -21 21 -53 37 -96
c5 13 7 27 7 41c0 29 -15 47 -44 55zM380 210c-21 -7 -36 -16 -46 -29c4 2 8 3 13 3c29 0 44 -15 44 -45c0 -32 -26 -58 -59 -58c-32 0 -52 26 -52 61c0 51 29 87 88 106l-3 14c-94 -36 -127 -79 -135 -154c0 -49 37 -82 93 -82c26 0 53 7 80 21c0 48 -7 98 -23 163z" />
    <glyph glyph-name="quotesingle" unicode="'" horiz-adv-x="282" 
d="M129 324l-15 10c4 20 56 121 67 137c14 20 29 30 45 30c17 0 25 -7 25 -21s-87 -156 -122 -156z" />
    <glyph glyph-name="parenleft" unicode="(" horiz-adv-x="343" 
d="M178 148c0 -41 7 -91 22 -148h-39c-19 57 -29 110 -29 158c0 132 53 245 159 339h53c-109 -114 -162 -224 -166 -349z" />
    <glyph glyph-name="parenright" unicode=")" horiz-adv-x="272" 
d="M80 0h-53c109 114 161 224 165 349c0 41 -7 91 -22 148h40c19 -55 29 -108 29 -157c0 -133 -53 -246 -159 -340z" />
    <glyph glyph-name="asterisk" unicode="*" horiz-adv-x="319" 
d="M247 394l41 -36l-27 -34l-43 37l-10 -56l-45 8l12 56l-54 -19l-13 43l52 18l-43 39l29 34l45 -39l11 57l45 -7l-13 -58l51 17l15 -41z" />
    <glyph glyph-name="plus" unicode="+" horiz-adv-x="386" 
d="M263 162v-145h-54v145h-115v55h115v142h55v-142h111v-55h-112z" />
    <glyph glyph-name="comma" unicode="," horiz-adv-x="234" 
d="M100 -115l-15 38c37 26 47 35 57 54c-25 4 -38 20 -38 48s19 50 45 50c30 0 44 -19 44 -56c0 -48 -31 -92 -93 -134z" />
    <glyph glyph-name="hyphen" unicode="-" horiz-adv-x="322" 
d="M289 156h-178l15 37h177z" />
    <glyph glyph-name="period" unicode="." horiz-adv-x="219" 
d="M135 -8c-24 0 -42 18 -42 41s19 42 42 42s41 -19 41 -42s-19 -41 -41 -41z" />
    <glyph glyph-name="slash" unicode="/" horiz-adv-x="390" 
d="M119 -17l-41 31l264 502l43 -26z" />
    <glyph glyph-name="zero" unicode="0" horiz-adv-x="481" 
d="M216 -12c-63 0 -102 40 -102 107c0 111 128 363 289 363c64 0 100 -38 100 -106c0 -151 -146 -364 -287 -364zM403 418c-74 0 -216 -247 -216 -351c0 -27 11 -40 32 -40c88 0 214 283 214 352c0 26 -10 39 -30 39z" />
    <glyph glyph-name="one" unicode="1" horiz-adv-x="422" 
d="M247 41h59l-20 -41h-201l19 41h58l152 324l-89 -46l-15 37c192 98 195 98 232 98z" />
    <glyph glyph-name="two" unicode="2" horiz-adv-x="552" 
d="M316 381c24 -3 37 -16 37 -41c0 -30 -31 -60 -61 -60c-29 0 -43 15 -43 47c0 70 81 131 174 131c72 0 120 -39 120 -97c0 -61 -41 -120 -107 -153c-171 -65 -209 -80 -253 -124c49 0 50 0 89 -9c32 -7 56 -11 72 -11c53 0 72 15 100 80h39c-39 -104 -91 -157 -155 -157
c-27 0 -56 10 -89 30c-28 17 -47 25 -58 25c-24 0 -45 -19 -66 -56l-38 6c39 78 90 137 152 177c192 96 217 117 226 195c0 34 -19 51 -56 51c-32 0 -60 -11 -83 -34z" />
    <glyph glyph-name="three" unicode="3" horiz-adv-x="488" 
d="M293 383c22 -3 32 -16 32 -37c0 -29 -26 -56 -56 -56c-28 0 -42 15 -42 45c0 64 84 122 170 122c70 0 117 -35 117 -88c0 -61 -47 -113 -130 -134c32 -15 48 -39 48 -72c0 -97 -94 -176 -210 -176c-70 0 -118 36 -118 89c0 54 42 106 86 106c23 0 43 -19 43 -41
c0 -32 -30 -62 -62 -62c-10 0 -18 2 -25 7c0 -40 15 -55 65 -55c72 0 122 54 135 138c0 31 -28 49 -82 55l11 36c106 8 140 46 150 111c0 30 -17 45 -51 45c-32 0 -59 -11 -81 -33z" />
    <glyph glyph-name="four" unicode="4" horiz-adv-x="500" 
d="M408 191c24 2 58 15 103 40c-55 -86 -84 -109 -135 -109l-39 -81h63l-20 -41h-207l19 41h60l38 81h-206c136 144 274 255 413 333h38zM203 189h119l73 153c-74 -52 -138 -103 -192 -153z" />
    <glyph glyph-name="five" unicode="5" horiz-adv-x="525" 
d="M455 366c-9 0 -46 3 -102 8c-9 0 -22 -1 -39 -4l-49 -86c26 10 50 14 74 14c74 0 125 -44 125 -109c0 -103 -108 -200 -226 -200c-69 0 -116 37 -116 92c0 52 43 105 86 105c21 3 44 -19 44 -42c0 -31 -30 -61 -62 -61c-11 0 -20 3 -27 9c0 -40 19 -62 66 -62
c69 0 138 72 150 170c0 38 -20 57 -60 57c-27 0 -59 -12 -95 -37l-31 12l117 207c27 6 46 8 59 8c86 -8 94 -9 102 -9c21 0 56 9 107 26c-45 -65 -86 -98 -123 -98z" />
    <glyph glyph-name="six" unicode="6" horiz-adv-x="495" 
d="M467 412c-7 4 -17 6 -30 6c-54 0 -108 -46 -161 -138c26 14 52 22 78 22c62 0 102 -39 102 -100c0 -110 -104 -212 -214 -212c-72 0 -118 45 -118 118c0 154 156 351 303 351c57 0 94 -28 94 -72c0 -40 -31 -77 -66 -77c-24 0 -42 18 -42 43c0 29 29 54 54 59zM339 261
c-74 0 -138 -104 -138 -174c0 -38 14 -57 41 -57c56 0 129 106 133 191c0 27 -12 40 -36 40z" />
    <glyph glyph-name="seven" unicode="7" horiz-adv-x="576" 
d="M484 303c-170 -131 -198 -154 -242 -208c22 -5 33 -19 33 -42c0 -34 -33 -67 -67 -67c-31 0 -46 16 -46 48c0 63 48 108 311 315c-24 0 -36 0 -77 18c-30 12 -51 19 -65 19c-43 0 -66 -22 -96 -93h-45l76 160h42l-10 -22c27 16 55 25 83 25c17 0 41 -7 72 -20
s54 -20 69 -20c22 0 41 13 58 37h55c-44 -55 -95 -105 -151 -150z" />
    <glyph glyph-name="eight" unicode="8" horiz-adv-x="493" 
d="M405 243c26 -26 38 -55 38 -86c0 -92 -93 -169 -205 -169c-79 0 -129 39 -129 98c0 76 55 137 148 163c-16 22 -24 44 -24 67c0 78 81 143 178 143c65 0 108 -33 108 -84c0 -59 -41 -107 -114 -132zM415 420c-44 0 -94 -34 -94 -81c0 -20 16 -42 47 -66
c66 17 95 47 103 102c0 27 -23 45 -56 45zM289 218c-75 -15 -118 -58 -128 -129c0 -48 38 -61 67 -61c66 0 115 43 125 111c0 30 -14 43 -64 79z" />
    <glyph glyph-name="nine" unicode="9" horiz-adv-x="478" 
d="M157 36c7 -5 17 -7 30 -7c55 0 108 46 160 138c-24 -15 -50 -22 -78 -22c-59 0 -101 40 -101 101c0 102 97 211 214 211c74 0 119 -45 119 -117c0 -154 -156 -351 -304 -351c-56 0 -95 29 -95 72c0 37 30 77 67 77c24 0 42 -19 42 -43c0 -27 -27 -55 -54 -59zM382 419
c-53 0 -118 -85 -133 -193c0 -27 11 -40 33 -40c77 3 141 95 141 178c0 39 -17 55 -41 55z" />
    <glyph glyph-name="colon" unicode=":" horiz-adv-x="281" 
d="M198 222c-29 0 -44 17 -44 50s20 54 50 54c25 0 45 -22 45 -48s-20 -56 -51 -56zM134 -8c-18 -4 -44 18 -44 47s21 57 50 57c26 0 45 -21 45 -49c0 -31 -23 -55 -51 -55z" />
    <glyph glyph-name="semicolon" unicode=";" horiz-adv-x="295" 
d="M214 219c-31 0 -46 18 -46 52c0 32 21 55 51 55c26 0 47 -23 47 -49c0 -30 -25 -58 -52 -58zM84 -116l-15 42c43 27 56 38 69 60c-22 3 -37 24 -37 49c0 31 24 57 52 57s47 -22 47 -53c0 -56 -38 -107 -116 -155z" />
    <glyph glyph-name="less" unicode="&#x3c;" horiz-adv-x="481" 
d="M54 152v52l349 164v-70l-257 -121l257 -120v-70z" />
    <glyph glyph-name="equal" unicode="=" horiz-adv-x="388" 
d="M46 222v59h247v-59h-247zM46 127v56h247v-56h-247z" />
    <glyph glyph-name="greater" unicode="&#x3e;" horiz-adv-x="466" 
d="M122 -13v70l257 120l-257 121v70l348 -164v-52z" />
    <glyph glyph-name="question" unicode="?" horiz-adv-x="439" 
d="M209 431c26 0 48 -23 48 -50c0 -28 -22 -51 -48 -51c-29 0 -50 24 -50 61c0 67 59 119 137 119c83 0 141 -52 141 -129c0 -49 -17 -87 -51 -112c-114 -55 -129 -69 -139 -133h-39c16 99 37 117 115 179c18 19 27 43 27 71c0 47 -29 83 -71 83c-30 0 -53 -13 -70 -38z
M208 -8c-29 0 -51 23 -51 53c0 29 20 54 51 54c30 0 50 -29 50 -54c0 -29 -23 -53 -50 -53z" />
    <glyph glyph-name="at" unicode="@" horiz-adv-x="652" 
d="M511 -3c-29 0 -47 11 -56 35c-23 -21 -49 -31 -80 -31c-58 0 -98 43 -98 106c0 110 90 231 182 231c34 0 60 -12 77 -36l9 23h80c-67 -168 -101 -256 -101 -265c0 -5 3 -7 10 -7c64 0 124 84 124 169c0 101 -84 174 -199 174c-126 0 -245 -124 -245 -255
c0 -110 89 -183 222 -183c72 0 137 24 195 72l33 -28c-52 -57 -144 -95 -231 -95c-167 0 -286 96 -286 233c0 168 142 311 310 311c147 0 251 -95 251 -229c0 -122 -90 -225 -197 -225zM475 291c-53 -1 -124 -134 -124 -207c0 -24 12 -36 35 -36c56 0 120 139 120 210
c0 22 -11 33 -31 33z" />
    <glyph glyph-name="A" unicode="A" horiz-adv-x="613" 
d="M1487 -164c-39 30 -94 45 -165 45c-57 0 -78 -8 -128 -47c-57 57 -104 76 -188 76c-46 0 -112 -13 -200 -41c-87 -27 -153 -41 -199 -41c-79 0 -149 36 -210 108c-22 26 -33 68 -33 124c-45 16 -87 43 -127 80c-88 -96 -166 -144 -233 -144c-65 0 -102 41 -102 105
c0 58 34 100 84 100c34 0 57 -22 57 -54c0 -34 -12 -42 -68 -59c-18 -8 -28 -17 -28 -29c0 -26 21 -39 61 -39c57 0 127 47 211 140c-29 46 -44 77 -44 93c0 42 50 76 106 76c21 0 43 -6 65 -16c156 193 337 353 404 353c5 0 8 -3 8 -9c0 -5 -10 -27 -30 -65
c-88 -172 -166 -344 -233 -517c38 5 64 24 119 84l20 -18c-51 -55 -91 -88 -151 -95c0 -105 65 -171 169 -171c20 0 20 0 312 69c148 26 163 29 189 29c131 0 243 -46 334 -137zM699 620c-82 -45 -162 -124 -330 -322c31 -19 56 -46 75 -79c52 91 137 225 255 401zM430 194
c-47 6 -68 9 -84 9l-31 31c-23 -28 -44 -52 -62 -73c43 -40 83 -65 120 -75c15 32 34 68 57 108zM296 252c-21 16 -51 18 -63 18c-15 0 -23 -10 -23 -32c0 -9 9 -28 27 -55c17 19 36 42 59 69z" />
    <glyph glyph-name="B" unicode="B" horiz-adv-x="720" 
d="M666 617c-92 -29 -189 -142 -245 -253c-150 -303 -185 -350 -276 -350c-56 0 -101 26 -101 60c0 20 13 25 70 38c16 8 24 23 24 46c0 32 -23 53 -56 53c-47 0 -80 -42 -80 -95c0 -76 59 -119 150 -119c190 0 264 91 392 417c43 109 89 174 138 194c17 -18 26 -41 26 -71
c0 -88 -62 -201 -116 -201c-5 0 -17 1 -44 6c-11 0 -17 -5 -17 -15c0 -11 7 -16 21 -16c26 4 35 5 36 5c23 0 35 -22 35 -65c0 -99 -84 -241 -142 -241c-25 0 -37 15 -37 46c0 34 10 44 75 108c0 5 -3 7 -8 7c-36 0 -86 -74 -86 -116c0 -45 26 -68 78 -68
c105 0 205 100 205 205c0 67 -33 112 -100 134c121 35 181 92 181 172c0 52 -27 91 -80 117c34 6 49 12 50 19l-2 5c-17 0 -21 0 -71 -14c-48 24 -103 36 -164 36c-198 0 -388 -145 -388 -276c0 -59 41 -97 105 -97c104 0 176 85 176 199c0 53 -19 79 -58 79
c-81 0 -143 -80 -143 -184c1 -4 2 -8 3 -13c17 14 45 32 84 55c9 47 38 101 59 101c11 0 16 -7 16 -20c0 -100 -77 -188 -164 -188c-35 0 -59 29 -59 69c0 121 184 259 361 259h-1c94 -8 120 -11 153 -28z" />
    <glyph glyph-name="C" unicode="C" horiz-adv-x="404" 
d="M1197 648c-1 -18 -21 -45 -60 -80c-71 -66 -144 -99 -217 -99c-53 0 -68 4 -128 39c-116 68 -190 102 -223 102c-16 0 -25 -4 -25 -11c0 -4 1 -12 4 -32c0 -92 -74 -181 -153 -181l-33 9l-13 30c0 68 75 165 148 192c-12 4 -19 7 -23 7c-128 5 -365 -313 -365 -475
c0 -59 22 -88 66 -88c88 0 179 111 179 206c0 15 -12 30 -24 30c-10 0 -24 -10 -44 -30l-1 -1c-8 -11 -17 -35 -27 -73c-14 -6 -29 -14 -44 -25l-42 -29c0 122 59 197 142 197c44 0 66 -21 66 -62c0 -132 -122 -267 -246 -267c-90 0 -135 40 -135 119c0 218 273 531 470 531
c24 0 45 -8 64 -23c33 15 68 23 104 23c57 -2 90 -18 208 -89c46 -28 57 -31 91 -31c91 0 133 20 255 117h3zM517 566c-2 19 -3 22 -3 31c-69 -30 -133 -116 -133 -163c0 -14 7 -20 22 -20c54 0 114 83 114 152z" />
    <glyph glyph-name="D" unicode="D" horiz-adv-x="700" 
d="M750 375c0 -184 -168 -373 -337 -373c-43 0 -86 10 -131 30c-49 -22 -98 -34 -147 -34c-46 0 -136 9 -136 65c0 37 35 56 104 56c38 0 90 -13 157 -37c34 34 76 101 126 201c66 134 137 231 212 292c-46 35 -83 45 -170 56c-131 0 -292 -142 -292 -245
c0 -40 24 -69 59 -69c87 0 164 88 164 188c0 13 -5 20 -16 20c-21 0 -50 -54 -59 -101c-14 -6 -29 -15 -43 -26l-41 -29c-1 4 -3 8 -3 13c0 104 62 184 143 184c39 0 58 -23 58 -87c0 -108 -76 -191 -176 -191c-64 0 -105 38 -105 97c0 26 9 54 26 84
c74 126 180 189 319 189c57 0 88 -14 158 -66c34 22 57 33 70 33c7 0 10 -3 10 -9c0 -3 -2 -5 -61 -43c74 -47 111 -113 111 -198zM677 378c0 64 -19 123 -56 175c-21 -30 -44 -85 -67 -167c-53 -185 -97 -258 -215 -328c32 -15 60 -23 85 -23c150 0 253 181 253 343z
M235 57c-51 25 -99 37 -146 37c-41 0 -61 -10 -61 -31c0 -28 57 -40 97 -40c48 0 84 11 110 34z" />
    <glyph glyph-name="E" unicode="E" horiz-adv-x="456" 
d="M1205 648c-1 -27 -122 -179 -276 -179c-53 0 -70 5 -129 39c-116 68 -190 102 -222 102c-17 0 -25 -4 -25 -11c0 -4 1 -12 4 -32c0 -90 -75 -181 -154 -181l-33 9l-12 30c0 71 75 165 147 192c-13 5 -26 8 -37 8c-78 0 -168 -107 -168 -199c0 -21 2 -38 7 -53
c3 -1 7 -3 14 -4c86 -3 112 -8 112 -22c0 -24 -8 -36 -25 -36c-35 0 -90 15 -116 32c-78 -25 -103 -39 -132 -77c-35 -45 -52 -95 -52 -148c0 -69 38 -103 114 -103c98 0 185 92 185 194c0 15 -13 31 -25 31c-10 0 -24 -10 -43 -31c-8 -4 -23 -54 -29 -73
c-25 -12 -80 -50 -84 -55h-1c0 122 53 197 141 197c44 0 66 -21 66 -62c0 -66 -25 -125 -76 -178c-25 -26 -72 -39 -139 -39c-126 0 -213 69 -213 167c0 113 81 175 265 203c-37 25 -55 59 -55 100c0 47 22 86 64 117c66 49 122 73 169 73c43 0 74 -8 95 -25
c32 15 67 23 104 23c55 -2 89 -18 207 -89c46 -28 58 -31 91 -31c92 0 138 24 255 117h4c0 -2 0 -2 2 -6zM525 566c-2 21 -2 24 -2 31c-70 -30 -134 -116 -134 -163c0 -14 7 -20 22 -20c54 0 114 83 114 152z" />
    <glyph glyph-name="F" unicode="F" horiz-adv-x="508" 
d="M619 290l-11 -17c-23 0 -46 -2 -68 -5c-53 -180 -175 -270 -365 -270c-71 0 -178 19 -178 114c0 48 34 84 82 84c41 0 62 -17 62 -52c0 -17 -9 -29 -26 -36c-58 -13 -71 -20 -71 -39c0 -29 52 -52 113 -52c128 0 201 95 256 234c-45 -9 -54 -13 -170 -81l-4 2
c-1 2 -1 3 -2 4c0 26 108 79 182 93c38 107 147 255 194 257l3 -1l2 -6c-42 -101 -58 -150 -71 -233c16 1 39 3 72 4zM239 271c-64 0 -105 38 -105 97c0 130 195 284 387 284c26 0 65 -6 115 -18c52 -11 90 -17 115 -17c12 0 34 6 66 19l5 -2l2 -5c0 -35 -65 -82 -108 -82
c-24 0 -67 11 -129 34c-61 22 -109 33 -142 33c-131 0 -292 -142 -292 -245c0 -40 24 -69 59 -69c87 0 164 88 164 188c0 13 -5 20 -16 20c-21 0 -50 -54 -59 -101c-25 -12 -80 -50 -84 -54c-1 3 -2 8 -3 12c0 104 62 184 143 184c39 0 58 -23 58 -87
c0 -108 -76 -191 -176 -191z" />
    <glyph glyph-name="G" unicode="G" horiz-adv-x="551" 
d="M608 553c0 -111 -190 -279 -347 -306c10 -30 40 -45 88 -45c61 0 108 20 197 82c39 27 42 28 52 28l2 -2c-29 -39 -36 -51 -47 -86c-24 -76 -41 -123 -51 -142c-44 -77 -124 -115 -241 -115c-119 0 -192 45 -192 120c0 49 36 85 84 85c39 0 59 -17 59 -50
c0 -20 -8 -34 -24 -42l-42 -14c-18 -8 -27 -17 -27 -29c0 -35 63 -51 111 -51c79 0 134 56 230 229c-38 -20 -76 -30 -113 -30c-50 0 -91 20 -125 59c-144 -6 -223 48 -223 156c0 124 142 220 228 220c7 0 10 -2 10 -7l-75 -41c-67 -43 -120 -130 -120 -199
c0 -70 55 -117 136 -117c10 0 22 1 35 3c-13 32 -20 62 -20 89c0 155 197 284 326 284c54 0 89 -31 89 -79zM592 558c0 38 -17 57 -53 57c-91 0 -262 -215 -280 -351c143 25 333 196 333 294z" />
    <glyph glyph-name="H" unicode="H" horiz-adv-x="527" 
d="M1498 -164c-39 30 -94 45 -165 45c-57 0 -78 -8 -128 -47c-57 57 -104 76 -188 76c-42 0 -109 -13 -197 -38l-104 -30c-34 -9 -70 -14 -108 -14c-85 0 -132 26 -200 108c-23 28 -35 73 -35 135c0 64 15 134 45 211c-17 -5 -39 -12 -68 -19c-62 -174 -180 -270 -331 -270
c-100 0 -162 43 -162 112c0 52 36 92 85 92c34 0 57 -23 57 -56c0 -18 -8 -31 -25 -38c-67 -19 -73 -24 -73 -41c0 -28 47 -51 96 -51c87 0 144 57 209 210c-99 0 -159 46 -159 121c0 119 119 241 234 241c7 0 41 -3 105 -8c-199 -39 -298 -120 -298 -242
c0 -29 12 -52 35 -71c42 -13 69 -20 80 -20c6 0 12 2 17 4c69 129 241 333 282 340l5 -2l2 -5c-80 -107 -116 -175 -151 -298l73 21c130 205 263 329 353 329c42 0 70 -25 70 -63c0 -79 -123 -176 -301 -243c-27 -39 -63 -187 -63 -250c0 -128 62 -200 173 -200
c23 0 67 9 129 26c117 32 318 72 372 72c131 0 243 -46 334 -137zM811 575c0 24 -12 37 -36 37c-60 0 -135 -96 -207 -262c52 21 102 51 150 89c62 49 93 94 93 136z" />
    <glyph glyph-name="I" unicode="I" horiz-adv-x="493" 
d="M728 597c-1 -5 -7 -7 -18 -7c-57 0 -138 -127 -241 -380c78 14 112 57 123 142c2 18 5 27 9 27c5 0 7 -6 7 -16c0 -102 -50 -160 -152 -174c-55 -116 -174 -190 -307 -190c-80 0 -153 37 -153 106c0 50 37 87 85 87c33 0 49 -16 49 -50c0 -17 -8 -30 -24 -37
c-56 -14 -67 -20 -67 -35c0 -29 47 -55 98 -55c88 0 153 56 197 168c-79 8 -131 61 -131 136c0 153 253 284 513 284c6 0 10 -2 12 -6zM645 582c-146 -12 -259 -73 -339 -182c-33 -45 -49 -86 -49 -121c0 -48 34 -78 87 -79c91 211 183 328 301 382z" />
    <glyph glyph-name="J" unicode="J" horiz-adv-x="410" 
d="M636 658c-7 -5 -21 -11 -42 -19c-60 -22 -61 -23 -239 -417c51 -4 77 -29 77 -73c0 -65 -76 -122 -158 -122c-10 0 -16 4 -16 12c0 5 9 9 27 13c82 16 123 49 123 97c0 35 -22 53 -66 53c-86 -163 -254 -301 -361 -301c-54 0 -81 26 -81 80c0 104 160 215 347 241
c134 257 206 371 303 420c-125 -13 -243 -80 -316 -178c-31 -40 -46 -74 -46 -100c0 -28 14 -42 43 -42c2 0 16 3 36 8c6 0 9 -4 9 -11c0 -11 -15 -17 -45 -17c-52 0 -88 38 -88 95c0 140 230 272 474 272c12 0 18 -4 19 -11zM237 198c-99 -11 -202 -75 -268 -167
c-21 -28 -31 -50 -31 -67c0 -26 14 -39 42 -39c65 0 135 76 257 273z" />
    <glyph glyph-name="K" unicode="K" horiz-adv-x="539" 
d="M1504 -164c-39 30 -94 45 -165 45c-57 0 -78 -8 -128 -47c-57 57 -104 76 -188 76c-46 0 -113 -13 -200 -41c-87 -27 -154 -41 -199 -41c-78 0 -148 36 -210 108c-23 27 -35 78 -35 152c0 22 12 56 36 104c25 48 37 79 37 91c0 14 -6 23 -17 28c-14 -4 -23 -5 -37 -5
c-92 -217 -199 -306 -366 -306c-100 0 -172 47 -172 111c0 52 37 91 87 91c38 0 56 -17 56 -49c0 -22 -8 -36 -23 -43l-46 -10c-15 -3 -23 -12 -23 -26c0 -31 47 -57 103 -57c85 0 132 48 223 208c62 109 116 192 162 250c-105 -84 -111 -88 -140 -88c-59 0 -76 7 -96 40
c-11 18 -16 35 -16 51c0 95 71 164 171 164c6 0 31 -2 75 -6c-135 -27 -202 -81 -202 -164c0 -38 25 -58 68 -58c39 0 86 32 243 168c31 27 49 41 54 41l4 -4c-72 -88 -72 -89 -150 -284c72 -9 72 -8 187 176c47 60 156 136 198 136c1 -1 3 -2 5 -2l2 -4
c-71 -36 -92 -53 -133 -119c-82 -136 -130 -183 -211 -203c37 -18 55 -51 55 -99c0 -19 -3 -47 -10 -85c-5 -38 -8 -66 -8 -85c0 -109 65 -175 174 -175c20 0 20 0 312 69c148 26 163 29 188 29c132 0 244 -46 335 -137z" />
    <glyph glyph-name="L" unicode="L" horiz-adv-x="493" 
d="M1258 -125c-57 15 -101 22 -132 22c-40 0 -77 -12 -108 -37c-63 56 -98 75 -143 75c-43 0 -107 -14 -190 -42s-147 -42 -190 -42c-113 0 -200 70 -237 186c-55 -27 -98 -40 -129 -40c-64 0 -124 38 -124 83c0 60 37 89 112 89c47 0 101 -14 164 -42l76 128
c-132 1 -159 74 -159 121c0 119 119 241 234 241c8 0 42 -3 104 -9c-198 -39 -297 -120 -297 -241c0 -63 44 -97 125 -97c88 205 214 352 315 352c39 0 64 -33 64 -82c0 -110 -153 -221 -274 -269c-46 -96 -88 -157 -128 -184c23 -75 41 -117 62 -140c34 -39 68 -59 103 -59
c53 0 130 16 231 47c102 30 179 46 232 46c123 0 219 -36 289 -106zM714 565c0 28 -11 42 -34 42c-35 0 -76 -43 -125 -130c-39 -69 -65 -130 -80 -181c160 71 239 161 239 269zM221 67v16c0 15 -54 38 -83 38h-46c-43 0 -53 -11 -53 -54c0 -19 27 -37 53 -37
c68 0 111 12 129 37z" />
    <glyph glyph-name="M" unicode="M" horiz-adv-x="607" 
d="M714 647c-174 -403 -222 -527 -222 -601c0 -9 3 -13 10 -13c10 0 56 41 138 122c22 0 22 0 22 -5c0 -10 -142 -148 -188 -148c-42 0 -71 39 -71 95c0 87 53 188 200 405l88 130c-98 -68 -254 -286 -390 -540c-31 -59 -55 -88 -71 -88c-31 -2 -55 38 -55 95
c0 68 92 245 275 531c-56 -41 -159 -180 -308 -417c-94 -149 -158 -211 -217 -211s-100 38 -100 93c0 58 38 103 87 103c33 0 50 -16 50 -47c0 -20 -9 -34 -27 -42c-71 -21 -77 -24 -77 -51c0 -25 40 -41 63 -41c48 0 114 66 198 198c167 261 308 440 346 440
c9 0 13 -4 13 -11c0 -12 -17 -56 -50 -134c-141 -327 -169 -411 -175 -469c158 298 381 614 448 614c8 0 13 -3 13 -8z" />
    <glyph glyph-name="N" unicode="N" horiz-adv-x="588" 
d="M745 517c0 -15 -12 -27 -35 -36l-52 -20c-13 -8 -41 -62 -83 -160l-79 -187c1 -27 3 -52 7 -74l-111 -54c-17 113 -25 208 -25 285c0 129 18 232 54 310c-39 -49 -85 -125 -136 -231c-130 -267 -223 -364 -349 -364c-67 0 -113 44 -113 107c0 56 42 102 93 102
c45 0 67 -18 67 -55c0 -19 -10 -33 -29 -42c-66 -16 -85 -26 -85 -45c0 -23 34 -45 71 -45c132 0 198 118 382 473c60 103 129 180 160 180c8 0 11 -5 11 -14c-18 -81 -22 -113 -22 -200c0 -85 6 -178 19 -280c119 270 175 380 219 380c24 0 36 -10 36 -30z" />
    <glyph glyph-name="O" unicode="O" horiz-adv-x="444" 
d="M147 9c-90 0 -135 40 -135 120c0 216 269 530 470 530c62 0 118 -45 118 -101c0 -21 -5 -33 -14 -36l-3 3c-1 3 -2 6 -2 8c0 1 2 16 4 23c0 47 -55 70 -99 70c-133 0 -364 -307 -364 -474c0 -59 22 -88 66 -88c111 0 209 96 293 289c22 51 33 89 33 115
c0 15 -12 30 -24 30c-10 0 -25 -10 -43 -30c-6 -3 -18 -33 -29 -74c-13 -6 -28 -14 -43 -25l-43 -29c0 122 54 196 142 196c49 0 67 -21 67 -79c0 -164 -231 -448 -394 -448z" />
    <glyph glyph-name="P" unicode="P" horiz-adv-x="560" 
d="M698 634c40 16 72 24 95 24c9 0 14 -4 14 -11c0 -3 -12 -8 -37 -15l-45 -13c51 -30 77 -72 77 -127c0 -106 -121 -192 -293 -208c-65 -189 -211 -303 -387 -303c-102 0 -169 47 -169 122c0 59 40 100 95 100c35 3 63 -24 63 -59s-15 -40 -73 -58c-17 -5 -25 -12 -25 -22
c0 -29 50 -58 101 -58c99 0 176 80 254 259c-21 -2 -33 -5 -108 -23c-8 0 -13 2 -13 8c0 8 8 15 23 19c47 14 84 23 112 26c77 163 173 271 287 324c-37 19 -94 28 -168 28c-149 0 -227 -30 -314 -120c-45 -47 -68 -92 -68 -133c0 -39 24 -69 59 -69c87 0 164 89 164 189
c0 13 -5 19 -16 19c-21 0 -50 -53 -59 -101c-14 -6 -29 -14 -43 -25l-41 -29c-1 4 -2 8 -3 13c0 103 62 184 143 184c39 0 58 -24 58 -88c0 -107 -76 -190 -176 -190c-64 0 -105 37 -105 96c0 134 192 284 396 284c96 0 136 -8 202 -43zM714 537c0 29 -8 52 -24 68
c-60 -30 -106 -111 -169 -294c108 16 193 115 193 226z" />
    <glyph glyph-name="Q" unicode="Q" horiz-adv-x="459" 
d="M51 337c0 105 175 331 398 331c114 0 184 -64 184 -168c0 -122 -124 -270 -341 -407c23 -1 40 -10 52 -26c31 -100 130 -182 165 -182c53 0 131 15 232 46s179 46 232 46c122 0 219 -35 289 -106c-57 15 -101 23 -132 23c-41 0 -77 -12 -109 -37c-52 46 -90 74 -142 74
c-44 0 -107 -13 -191 -41c-83 -28 -146 -43 -190 -43c-112 0 -173 45 -223 145c-14 29 -37 47 -67 53c-65 -33 -121 -50 -168 -50c-56 0 -84 20 -84 59c0 47 53 77 138 77c46 0 104 -10 172 -28c163 173 253 337 253 461c0 58 -26 87 -78 87c-155 0 -370 -183 -370 -312
c0 -57 27 -85 81 -85c90 0 165 89 165 192c0 13 -5 19 -16 19c-21 0 -50 -53 -59 -101c-13 -5 -28 -14 -44 -25l-40 -29c-2 4 -3 8 -4 13c0 103 63 184 143 184c39 0 59 -24 59 -88c0 -101 -89 -188 -193 -188c-75 0 -112 35 -112 106zM185 52c-73 29 -123 44 -151 44
c-33 0 -56 -18 -56 -43c0 -28 21 -41 64 -41c35 0 82 13 143 40z" />
    <glyph glyph-name="R" unicode="R" horiz-adv-x="745" 
d="M732 630c31 8 53 12 65 12c7 0 11 -2 11 -8c-6 -3 -8 -3 -47 -15c70 -27 104 -66 104 -119c0 -80 -87 -147 -229 -176c35 -18 53 -53 53 -105c0 -21 -7 -55 -20 -102c-8 -27 -12 -46 -12 -57c0 -10 3 -15 8 -15c9 0 54 43 137 130c10 -2 16 -6 16 -12
c0 -1 -124 -157 -196 -157c-48 0 -77 30 -77 80c0 24 13 62 40 113c27 52 40 85 40 98c0 11 -4 19 -12 22c-38 2 -56 6 -56 15s6 13 19 13c11 -2 45 -10 49 -11c80 0 150 117 150 198c0 38 -15 64 -45 76c-71 -27 -108 -85 -172 -242c-102 -251 -204 -363 -401 -363
c-103 0 -169 44 -169 115c0 53 38 92 88 92c35 0 60 -21 60 -50c0 -23 -9 -39 -27 -46c-68 -12 -74 -17 -74 -37c0 -32 54 -59 108 -59c77 0 151 67 221 201c128 256 197 336 340 398c-24 8 -64 14 -118 17l-63 3c-192 0 -379 -133 -379 -262c0 -39 25 -69 59 -69
c88 0 165 89 165 189c0 13 -6 19 -16 19c-21 0 -50 -53 -60 -101c-14 -6 -28 -14 -43 -25l-41 -29c-1 4 -2 8 -3 13c0 103 63 184 143 184c39 0 59 -24 59 -88c0 -107 -76 -190 -176 -190c-65 0 -106 37 -106 96c0 138 195 285 414 285c71 0 136 -10 193 -31z" />
    <glyph glyph-name="S" unicode="S" horiz-adv-x="496" 
d="M763 568c0 -101 -121 -219 -293 -288c-63 -166 -204 -278 -352 -278c-102 0 -169 42 -169 116c0 50 39 90 88 90c35 0 60 -21 60 -50c0 -23 -9 -38 -27 -45c-62 -11 -75 -17 -75 -38c0 -35 60 -58 108 -58c92 0 169 80 230 239c-108 2 -183 67 -183 159
c0 159 187 233 330 233c30 0 45 -4 45 -12c0 -9 -5 -9 -20 -9c-177 0 -303 -106 -303 -239c0 -74 50 -115 139 -115c65 166 209 376 346 376c44 0 76 -34 76 -81zM730 581c0 33 -14 50 -42 50c-77 0 -146 -109 -207 -326c54 23 107 60 159 111c60 59 90 114 90 165z" />
    <glyph glyph-name="T" unicode="T" horiz-adv-x="520" 
d="M231 288c-65 0 -106 38 -106 97c0 130 196 284 388 284c26 0 64 -6 115 -18c51 -11 90 -17 114 -17c12 0 34 6 66 19l6 -2l1 -5c0 -35 -64 -82 -107 -82c-24 0 -67 11 -129 33s-109 34 -143 34c-131 0 -292 -142 -292 -245c0 -40 25 -69 59 -69c88 0 165 88 165 188
c0 13 -6 20 -16 20c-21 0 -50 -54 -60 -101c-25 -12 -79 -50 -84 -55c-1 4 -3 8 -3 13c0 104 63 184 143 184c39 0 59 -23 59 -87c0 -108 -76 -191 -176 -191zM617 545c-40 -87 -40 -88 -52 -152c-44 -264 -176 -391 -407 -391c-118 0 -186 43 -186 119c0 53 40 93 92 93
c35 0 60 -20 60 -50c0 -24 -9 -40 -27 -47l-47 -10c-20 -6 -30 -16 -30 -29c0 -33 53 -59 116 -59c100 0 184 61 234 170c95 221 109 247 171 313c32 35 55 52 67 52c6 0 9 -3 9 -9z" />
    <glyph glyph-name="U" unicode="U" horiz-adv-x="668" 
d="M340 631c57 0 86 -27 86 -82c0 -34 -19 -80 -57 -137c-137 -199 -163 -244 -163 -310s27 -99 82 -99c58 0 109 46 206 189c-24 -56 -36 -94 -36 -112c0 -47 25 -77 67 -77c48 0 88 31 178 127l-11 17c-78 -82 -129 -122 -153 -122c-10 0 -15 2 -15 8c0 26 27 88 80 186
l221 406l-116 -14l-112 -211c-136 -254 -237 -381 -303 -381c-17 0 -26 9 -26 26c0 24 19 65 58 125l110 168c39 60 58 115 58 166c0 84 -63 147 -147 147c-145 0 -349 -194 -349 -333c0 -57 45 -96 110 -96c102 0 177 84 177 199c0 53 -20 79 -59 79
c-83 0 -143 -78 -143 -184c1 -4 2 -8 3 -13c18 14 46 32 84 55c10 47 39 100 60 100c10 0 16 -6 16 -19c0 -101 -75 -187 -165 -187c-34 0 -59 29 -59 68c0 129 188 311 318 311z" />
    <glyph glyph-name="V" unicode="V" horiz-adv-x="410" 
d="M640 624c-10 -19 -32 -46 -65 -80c-36 -35 -59 -61 -69 -79c-158 -273 -344 -461 -436 -461c-7 0 -11 2 -11 7c42 73 52 95 61 170c16 132 55 207 176 347c-139 -113 -144 -114 -199 -114c-44 0 -61 10 -80 44c-9 18 -14 34 -14 47c0 94 73 164 172 164c6 0 31 -2 75 -6
c-134 -27 -202 -81 -202 -164c0 -39 27 -58 69 -58c18 0 38 7 60 23c83 57 142 101 177 132c10 9 23 17 37 24l4 -1l2 -6c-69 -99 -70 -100 -101 -218c-38 -140 -101 -257 -189 -350c133 66 230 173 368 402c81 137 122 179 162 179z" />
    <glyph glyph-name="W" unicode="W" horiz-adv-x="726" 
d="M363 553c0 -124 -72 -236 -331 -533c0 -7 6 -11 16 -11c74 0 373 240 643 549c-164 -223 -233 -331 -233 -428c0 -63 25 -115 56 -115c16 0 40 33 73 99c97 191 179 296 304 387c8 6 16 13 23 22l-6 4c-57 0 -248 -205 -371 -468c5 45 38 139 99 283l125 299
c0 6 -4 10 -11 10c-5 0 -24 -20 -58 -61c-206 -253 -372 -416 -567 -516c248 195 334 309 334 423c0 101 -64 160 -180 160c-175 0 -350 -149 -350 -272c0 -58 43 -97 106 -97c101 0 176 85 176 199c0 53 -19 79 -58 79c-83 0 -144 -77 -144 -184l4 -13c17 14 45 32 84 55
c9 44 37 100 58 100c11 0 16 -6 16 -19c0 -102 -75 -188 -163 -188c-35 0 -60 29 -60 69c0 109 163 248 325 248c60 0 90 -27 90 -81z" />
    <glyph glyph-name="X" unicode="X" horiz-adv-x="481" 
d="M413 549c0 -188 -238 -523 -383 -523c-57 0 -104 35 -104 80c0 9 4 14 11 14l28 -23c12 -7 23 -11 35 -11c33 0 50 16 50 48c0 31 -28 56 -64 56c-43 0 -79 -38 -79 -82c0 -59 56 -100 131 -100c111 0 231 79 360 237c-37 -87 -56 -145 -56 -173c0 -38 15 -57 45 -57
c28 0 49 20 155 139l-15 9c-89 -102 -116 -128 -135 -128c-18 0 -27 12 -27 35c0 87 176 470 266 505c-6 -11 -9 -20 -9 -29c0 -22 20 -38 47 -38c31 0 57 22 57 50c0 29 -24 50 -59 50c-57 0 -106 -54 -186 -197c7 37 11 64 11 82c0 98 -64 161 -161 161
c-193 0 -375 -138 -375 -269c0 -58 42 -97 106 -97c103 0 176 85 176 199c0 53 -20 79 -59 79c-81 0 -143 -80 -143 -184c1 -4 2 -8 3 -13c18 14 46 32 84 55c11 51 38 100 59 100c11 0 16 -6 16 -19c0 -100 -77 -188 -164 -188c-34 0 -59 29 -59 69c0 75 93 181 193 222
c44 19 97 28 160 28c56 0 85 -29 85 -87z" />
    <glyph glyph-name="Y" unicode="Y" horiz-adv-x="545" 
d="M390 606c0 -16 -13 -41 -37 -75c-86 -120 -106 -151 -106 -206c0 -56 26 -84 78 -84c64 0 118 42 213 160c-191 -330 -219 -376 -328 -376c-61 0 -112 27 -112 61c0 13 9 21 27 26l50 12c19 8 28 24 28 46c0 31 -26 52 -62 52c-53 0 -91 -42 -91 -95
c0 -72 67 -118 174 -118c178 0 296 103 387 342c37 96 60 155 71 175l104 137c0 3 -2 5 -8 5c-18 0 -58 -36 -120 -107c-233 -270 -280 -305 -322 -305c-15 0 -23 5 -23 16c0 15 12 40 37 75c81 114 106 157 106 207c0 74 -52 121 -129 121c-192 0 -369 -143 -369 -270
c0 -57 44 -97 106 -97c104 0 177 85 177 200c0 52 -20 78 -59 78c-83 0 -143 -77 -143 -183c1 -4 3 -8 3 -13c18 13 46 31 84 54c9 48 39 101 60 101c10 0 16 -7 16 -20c0 -100 -75 -187 -165 -187c-34 0 -59 29 -59 69c0 74 96 182 193 223c28 12 109 25 154 25
c43 0 65 -16 65 -49z" />
    <glyph glyph-name="Z" unicode="Z" horiz-adv-x="395" 
d="M610 334c-24 -13 -60 -44 -107 -92c-55 -55 -101 -93 -139 -114c-57 -146 -268 -320 -387 -320c-59 0 -96 32 -96 83c0 100 137 184 366 228c25 40 38 78 38 114c0 11 -3 22 -8 35c-56 -33 -103 -49 -141 -49c-32 0 -49 12 -49 37c0 36 51 65 115 65c29 0 58 -7 88 -20
c73 58 129 133 167 224c-24 -3 -40 -5 -48 -5c-28 0 -69 14 -123 42c-52 28 -93 42 -122 42c-82 0 -138 -67 -138 -168c0 -6 1 -21 5 -53c0 -5 -4 -8 -11 -8c-9 0 -14 22 -14 64c0 138 91 241 214 241c62 0 95 -25 183 -100c28 -24 49 -36 63 -36c28 87 56 131 85 131
c16 0 24 -11 24 -33c0 -49 -31 -87 -95 -114c-47 -100 -105 -179 -174 -237c45 -35 67 -80 67 -133c32 16 71 47 119 94c83 82 92 82 118 82zM559 636c0 14 -4 21 -14 21c-16 0 -35 -37 -59 -111c42 19 73 59 73 90zM270 282c-18 14 -40 21 -67 21c-54 0 -95 -19 -95 -47
c0 -15 10 -22 31 -22c36 0 80 16 131 48zM235 92c-191 -38 -329 -121 -329 -205c0 -35 27 -61 64 -61c68 0 156 89 265 266z" />
    <glyph glyph-name="bracketleft" unicode="[" horiz-adv-x="320" 
d="M378 466h-65l-87 -434h65l-5 -32h-107l101 498h104z" />
    <glyph glyph-name="backslash" unicode="\" horiz-adv-x="370" 
d="M359 -10l-171 456h60l166 -456h-55z" />
    <glyph glyph-name="bracketright" unicode="]" horiz-adv-x="270" 
d="M225 0h-105l8 32h63l87 433h-65l5 32h106z" />
    <glyph glyph-name="asciicircum" unicode="^" horiz-adv-x="265" 
d="M201 358l-47 61l-78 -61h-46l109 116h42l55 -116h-35z" />
    <glyph glyph-name="underscore" unicode="_" horiz-adv-x="453" 
d="M88 -87v34h366v-34h-366z" />
    <glyph glyph-name="grave" unicode="`" horiz-adv-x="160" 
d="M174 354l-104 87l22 26l102 -86z" />
    <glyph glyph-name="a" unicode="a" horiz-adv-x="348" 
d="M373 331c-9 -32 -29 -74 -62 -124c-36 -55 -58 -95 -68 -121l8 -5c21 6 42 23 61 50c29 42 30 42 35 42c2 -3 3 -6 3 -9c0 -49 -105 -156 -153 -156c-32 0 -36 5 -52 50c-19 -33 -46 -50 -79 -50c-30 0 -57 29 -57 61c0 94 149 264 235 264c38 -16 46 -19 48 -19
c4 2 6 6 6 12c7 5 18 8 36 8c17 0 30 -1 39 -3zM276 291c-1 7 -7 11 -15 11s-16 -4 -25 -11c-58 -47 -124 -141 -124 -199c0 -12 5 -18 14 -18c30 0 136 177 150 217z" />
    <glyph glyph-name="b" unicode="b" horiz-adv-x="309" 
d="M331 568l-76 -160c-13 -35 -28 -65 -41 -81v-2c11 0 16 1 65 10c28 0 46 -26 46 -56c0 -130 -97 -281 -241 -281c-58 0 -87 27 -87 82c0 26 129 273 244 473c23 15 24 15 90 15zM245 294l-1 -1c-1 10 -7 15 -17 15c-23 0 -32 -12 -82 -116c-28 -57 -42 -94 -42 -110
c0 -7 4 -10 11 -10c47 -3 131 129 131 222z" />
    <glyph glyph-name="c" unicode="c" horiz-adv-x="264" 
d="M283 286c0 -36 -32 -79 -60 -79c-3 0 -8 3 -16 8c-3 7 -4 12 -4 15c0 27 25 51 55 51c0 9 -7 14 -22 14c-51 0 -150 -155 -150 -226c0 -13 6 -20 16 -20c39 0 67 20 126 87c18 21 30 31 37 31c3 0 4 -1 4 -4c0 -7 -18 -31 -52 -74c-48 -60 -97 -90 -148 -90
c-47 0 -71 23 -71 68c0 112 125 265 233 265c28 0 52 -22 52 -46z" />
    <glyph glyph-name="d" unicode="d" horiz-adv-x="327" 
d="M475 565c-45 -115 -130 -295 -172 -356c-33 -49 -56 -91 -68 -123l7 -5c27 8 31 12 93 92h3c2 -3 4 -6 4 -9c0 -49 -106 -156 -154 -156c-32 0 -36 5 -52 50c-19 -33 -45 -50 -78 -50c-30 0 -57 29 -57 61c0 89 153 264 235 264c38 -16 46 -19 48 -19c2 2 4 5 6 12
c5 22 73 183 109 254l48 1c13 0 22 -5 28 -16zM268 291c-2 7 -7 11 -15 11s-17 -4 -26 -11c-58 -47 -124 -141 -124 -199c0 -12 5 -18 15 -18c29 0 135 177 150 217z" />
    <glyph glyph-name="e" unicode="e" horiz-adv-x="248" 
d="M266 273c0 -69 -71 -131 -179 -154c-8 -21 -12 -38 -12 -50c0 -13 5 -20 15 -20c39 0 67 20 126 87c18 21 31 31 37 31c3 0 4 -1 4 -4c0 -7 -17 -31 -52 -74c-48 -60 -97 -90 -147 -90c-48 0 -72 23 -72 68c0 117 124 265 228 265c35 0 52 -20 52 -59zM231 281
c0 8 -2 15 -5 20c-2 1 -5 2 -7 2c-35 0 -96 -97 -125 -166c69 17 137 87 137 144z" />
    <glyph glyph-name="f" unicode="f" horiz-adv-x="229" 
d="M474 617c0 -85 -190 -301 -340 -412l-4 -8c44 2 57 13 113 60l1 -2c-16 -47 -79 -108 -142 -111l-152 -295l-83 -10l119 234c37 75 60 121 67 139c73 201 272 434 376 434c30 0 45 -10 45 -29zM448 601c-6 11 -11 17 -14 17c-75 0 -245 -255 -291 -380
c109 73 293 283 305 363z" />
    <glyph glyph-name="g" unicode="g" horiz-adv-x="336" 
d="M379 147c-62 -61 -122 -101 -180 -121c-87 -168 -170 -251 -248 -251c-46 0 -79 25 -79 62c0 68 81 128 243 181l22 39l-1 1c-18 -33 -44 -50 -78 -50c-30 0 -57 29 -57 61c0 89 153 264 235 264c6 -2 29 -11 48 -19c4 2 6 6 6 12c7 5 18 8 34 8c18 0 31 -1 40 -3
c-6 -22 -76 -161 -153 -284c37 12 85 44 142 95zM268 291c-2 7 -7 11 -15 11s-17 -4 -26 -11c-66 -55 -124 -146 -124 -199c0 -12 5 -18 15 -18c29 0 135 177 150 217zM109 1c-47 -16 -90 -37 -128 -63c-52 -36 -78 -72 -78 -107c0 -26 14 -39 42 -39c39 0 94 69 164 209z
" />
    <glyph glyph-name="h" unicode="h" horiz-adv-x="293" 
d="M333 114c-5 -26 -55 -83 -86 -100c-18 -9 -41 -14 -70 -14c-38 0 -58 18 -58 53c0 9 16 42 46 100c36 67 46 101 46 141l-1 -1c-1 10 -7 15 -17 15c-29 0 -47 -25 -169 -272c-21 -11 -53 -16 -98 -16c34 60 81 149 140 266c61 122 107 211 138 267c24 15 25 15 91 15
l-58 -126c-31 -69 -49 -106 -56 -111v-6c10 0 15 1 64 10c28 0 47 -26 47 -56c0 -35 -10 -54 -89 -213c0 -3 4 -7 11 -12c44 0 63 14 117 60h2z" />
    <glyph glyph-name="i" unicode="i" horiz-adv-x="158" 
d="M218 404c0 -39 -11 -49 -50 -49c-23 0 -34 6 -34 17v37c0 19 46 33 55 33c19 0 29 -13 29 -38zM176 158c0 -53 -105 -156 -159 -156c-27 0 -41 19 -41 56c0 21 8 44 23 71l38 66c5 10 19 44 44 102h90c-46 -81 -79 -153 -102 -217l9 -6c21 7 39 23 55 46
c25 39 33 46 41 46c1 -2 2 -4 2 -8z" />
    <glyph glyph-name="j" unicode="j" horiz-adv-x="192" 
d="M235 430c0 -40 -11 -49 -50 -49c-23 0 -34 5 -34 16v38c0 18 46 32 55 32c19 0 29 -12 29 -37zM379 294c-22 -13 -42 -29 -62 -49c-104 -109 -163 -152 -243 -179c-96 -169 -184 -253 -264 -253c-35 0 -52 16 -52 50c0 63 93 143 233 201c23 57 59 143 107 258h90
l-107 -228c71 21 105 42 174 110c91 90 97 90 124 90zM-22 -1c-126 -61 -198 -127 -198 -181c0 -19 9 -29 28 -29c49 0 102 64 170 210z" />
    <glyph glyph-name="k" unicode="k" horiz-adv-x="340" 
d="M364 264c0 -36 -29 -74 -61 -74c-9 0 -22 10 -22 17c0 21 10 38 30 51c11 1 18 6 23 17c-12 3 -19 5 -20 5c-8 0 -25 -14 -50 -40l-50 -53c17 -3 28 -11 33 -23c3 -6 5 -20 5 -41c0 -36 -8 -56 -24 -60l9 -9c44 0 60 11 119 60l1 -1c-6 -26 -55 -81 -86 -98
c-18 -10 -42 -15 -70 -15c-38 0 -57 16 -57 49c0 40 15 77 46 113c-50 0 -65 0 -69 23l-74 -149c-20 -11 -52 -16 -97 -16c32 56 78 145 139 266c59 118 105 207 139 267c24 15 24 15 91 15c-112 -246 -120 -264 -175 -338l2 -5l14 -11c75 83 96 101 145 101
c32 0 59 -24 59 -51z" />
    <glyph glyph-name="l" unicode="l" horiz-adv-x="189" 
d="M459 617c0 -79 -119 -229 -340 -412c-17 -14 -38 -88 -39 -118l9 -20h4c11 0 28 13 52 39s38 40 44 40c3 0 4 -2 4 -4c0 -23 -109 -143 -146 -143c-29 0 -49 24 -49 53c0 195 274 594 416 594c30 0 45 -10 45 -29zM434 601c-6 11 -11 17 -15 17
c-73 0 -244 -252 -290 -380c104 70 292 280 305 363z" />
    <glyph glyph-name="m" unicode="m" horiz-adv-x="486" 
d="M547 122c-4 -24 -54 -81 -85 -98c-19 -10 -42 -16 -70 -16c-39 0 -58 18 -58 54c0 9 12 39 37 89c30 60 37 89 37 127v-1c-2 10 -6 15 -13 15c-13 0 -48 -32 -85 -78c-14 -20 -69 -162 -69 -181c0 -10 7 -18 21 -25l-104 -6c-1 3 -2 6 -2 12c0 23 14 64 41 122
c34 72 42 105 42 142l-1 -1c-1 10 -5 15 -13 15c-33 0 -98 -84 -130 -177c-20 -58 -33 -94 -40 -107l-105 -6l83 177c29 53 34 62 34 74c0 9 -3 13 -8 13c-49 -46 -53 -49 -54 -49l-4 4c2 25 89 116 109 116c26 0 38 -21 38 -65c0 -5 2 -8 5 -8c-6 0 -9 1 -9 3
c0 9 99 52 120 52c38 0 56 -19 56 -58c57 45 83 58 113 58c37 0 56 -18 56 -56c0 -29 -5 -41 -71 -188c0 -3 3 -7 10 -12c45 0 65 15 119 61v-2z" />
    <glyph glyph-name="n" unicode="n" horiz-adv-x="318" 
d="M378 123c-3 -26 -55 -83 -86 -99c-18 -10 -42 -16 -70 -16c-38 0 -58 18 -58 54c0 9 13 39 38 89c29 60 37 89 37 127l-1 -1c-1 10 -5 15 -13 15l-1 1c-28 -2 -87 -70 -127 -179c-20 -54 -34 -89 -42 -106l-105 -6l83 177c29 53 34 62 34 74c0 9 -3 13 -8 13
c-49 -46 -53 -49 -54 -49l-4 4c2 25 89 116 109 116c26 0 38 -21 38 -65c0 -5 2 -8 5 -8c-6 0 -9 1 -9 3c0 9 99 52 120 52c37 0 55 -18 55 -56c0 -29 -5 -41 -71 -188c0 -3 4 -7 10 -12c43 0 60 11 119 61z" />
    <glyph glyph-name="o" unicode="o" horiz-adv-x="259" 
d="M308 203c0 -14 -22 -20 -77 -20c-54 -105 -132 -180 -185 -180c-45 0 -67 21 -67 61c0 111 127 265 224 265c38 0 57 -18 57 -54c0 -11 -6 -35 -18 -69c5 -2 10 -3 15 -3l40 5c8 0 11 -2 11 -5zM236 270c0 19 -7 28 -22 28c-23 0 -55 -24 -55 -46c0 -23 26 -45 52 -45
l4 1c11 0 21 43 21 62zM207 187c-31 4 -53 19 -66 46c-10 -11 -24 -35 -43 -72c-23 -61 -23 -63 -23 -72c0 -11 5 -17 17 -17c36 0 75 38 115 115z" />
    <glyph glyph-name="p" unicode="p" horiz-adv-x="282" 
d="M294 245c0 -102 -110 -241 -198 -241c-21 9 -48 19 -49 19l-98 -179l-83 -11l170 312c4 4 56 86 69 124l-8 5c-20 -6 -41 -23 -60 -50c-29 -42 -30 -43 -35 -43c-3 3 -4 6 -4 10c0 49 104 156 154 156c23 0 37 -7 41 -19c9 -33 10 -34 16 -34c14 3 32 6 38 7
c32 0 47 -19 47 -56zM217 229l-4 30c-1 9 -5 14 -13 16c-20 -9 -123 -194 -136 -228c2 -8 7 -11 15 -11s16 3 25 10c59 49 113 133 113 183z" />
    <glyph glyph-name="q" unicode="q" horiz-adv-x="275" 
d="M347 310l-133 -236c12 -14 17 -43 17 -86c0 -78 -75 -193 -161 -193c-34 0 -51 18 -51 55c0 41 31 98 93 169l-1 3c-1 0 -43 -9 -66 -15c-30 0 -45 18 -45 55c0 104 121 249 214 249c7 0 14 -2 33 -9c4 0 7 1 9 3zM236 275c0 3 -1 5 -2 6c-9 0 -19 -5 -29 -13
c-74 -57 -125 -131 -125 -220l1 1c1 -8 6 -13 13 -13c9 0 18 4 27 11c72 136 115 222 115 228zM216 -2c0 17 -4 37 -11 60c-84 -148 -125 -226 -125 -234s3 -11 9 -11c50 0 127 108 127 185z" />
    <glyph glyph-name="r" unicode="r" horiz-adv-x="247" 
d="M319 277c0 -36 -32 -79 -61 -79c-10 0 -20 15 -20 23c0 28 26 51 56 51c0 17 -2 20 -30 20c-17 0 -102 -76 -115 -96c-31 -46 -38 -62 -96 -196l-84 2l83 177c29 53 34 62 34 74c0 9 -3 13 -8 13c-50 -46 -53 -49 -54 -49l-5 4c1 14 82 116 110 116c25 0 38 -21 38 -65
c0 -5 1 -8 4 -8l43 28c29 20 51 29 65 29c20 0 40 -24 40 -44z" />
    <glyph glyph-name="s" unicode="s" horiz-adv-x="231" 
d="M240 159c0 -82 -83 -164 -165 -164c-56 0 -97 31 -97 72c0 27 20 47 47 47c25 0 38 -13 38 -39c0 -20 -16 -37 -33 -37c-6 0 -11 1 -15 2c10 -11 22 -17 36 -17c61 0 95 88 95 241c-110 -99 -111 -99 -112 -99c-6 0 -9 3 -9 9c0 4 15 20 43 45c69 64 85 78 105 111
c8 14 16 22 22 22c8 0 13 -4 13 -12c-26 -37 -28 -40 -28 -47c58 -108 60 -112 60 -134z" />
    <glyph glyph-name="t" unicode="t" horiz-adv-x="195" 
d="M319 569l-66 -127h62l-6 -23h-73l-141 -267c-10 -20 -15 -41 -15 -65l9 -20h4c11 0 28 13 52 39s38 40 44 40c3 0 4 -2 4 -4c0 -23 -109 -143 -146 -143c-29 0 -49 24 -49 53c0 78 24 134 129 327l102 186z" />
    <glyph glyph-name="u" unicode="u" horiz-adv-x="350" 
d="M375 330l-72 -121c-47 -77 -57 -93 -68 -123l7 -5c22 6 42 23 61 50c30 42 30 42 35 42c2 -3 4 -6 4 -9c0 -49 -106 -156 -154 -156c-32 0 -36 5 -52 50c-19 -33 -45 -50 -78 -50c-30 0 -57 29 -57 61c0 12 3 24 8 36l99 217l97 8c-46 -62 -105 -167 -105 -222
c0 -23 6 -34 18 -34c31 0 132 174 164 248z" />
    <glyph glyph-name="v" unicode="v" horiz-adv-x="293" 
d="M392 231c0 -19 -97 -92 -140 -92h-21c-32 -58 -120 -131 -173 -131c-30 0 -57 29 -57 61c0 12 3 24 8 36l99 217l97 8c-46 -62 -105 -167 -105 -222c0 -15 9 -34 18 -34c33 0 65 24 97 73c-17 17 -26 37 -26 59c0 61 48 157 104 157c25 0 37 -17 37 -50
c0 -42 -28 -94 -84 -159c39 0 75 17 140 82c4 0 6 -2 6 -5zM303 279c0 10 -6 15 -17 15c-37 0 -77 -45 -77 -89c0 -17 6 -32 18 -45c50 58 76 97 76 119z" />
    <glyph glyph-name="w" unicode="w" horiz-adv-x="478" 
d="M510 321l-71 -120c-48 -77 -57 -93 -69 -124l8 -5c21 7 42 24 61 51c29 41 30 41 35 41c2 -2 3 -6 3 -9c0 -48 -105 -156 -153 -156c-31 0 -34 5 -52 51c-19 -33 -48 -50 -89 -50c-26 0 -28 3 -47 50c-19 -34 -45 -51 -78 -51c-30 0 -57 30 -57 62c0 11 3 23 8 36l99 217
l89 7c-65 -116 -97 -190 -97 -223c0 -8 9 -34 14 -34c24 0 76 83 156 250l79 7c-89 -150 -113 -197 -113 -226c0 -13 9 -30 17 -30c31 0 132 174 165 249z" />
    <glyph glyph-name="x" unicode="x" horiz-adv-x="352" 
d="M528 290c-45 -26 -109 -87 -192 -184c-69 -81 -103 -111 -138 -111c-52 0 -78 46 -78 138c-42 -101 -83 -146 -132 -146c-29 0 -44 15 -44 44c0 32 14 48 42 48c26 0 42 -15 46 -43c68 52 99 153 99 211c0 13 -4 19 -13 19c-8 0 -23 -11 -48 -33c-23 -21 -37 -32 -41 -32
h-4l-1 4c2 26 117 127 145 127c36 0 53 -33 53 -98c0 -6 -1 -18 -3 -37c39 101 70 139 114 139c33 0 50 -15 50 -44s-14 -44 -41 -44c-28 0 -43 13 -43 38c0 5 1 10 4 16c-44 -27 -94 -177 -94 -262c0 -12 5 -18 14 -18c10 0 36 23 78 70l116 130c42 47 75 70 98 70
c2 0 6 0 13 -2z" />
    <glyph glyph-name="y" unicode="y" horiz-adv-x="327" 
d="M379 147c-62 -61 -122 -101 -180 -121c-87 -168 -170 -251 -248 -251c-46 0 -79 25 -79 62c0 68 81 128 243 181l22 39l-1 1c-18 -33 -44 -50 -78 -50c-30 0 -57 29 -57 61c0 25 8 41 97 204c0 4 -1 6 -5 6c-2 0 -7 -4 -68 -48l-4 3c5 25 92 99 118 99
c29 0 43 -19 43 -58c-33 -51 -79 -155 -79 -183c0 -12 5 -18 15 -18c29 0 135 177 150 217h5c16 31 16 32 17 35c7 5 18 8 35 8s30 -1 39 -3c-6 -22 -76 -161 -153 -284c37 12 85 44 142 95zM109 1c-47 -16 -90 -37 -128 -63c-52 -36 -78 -72 -78 -107c0 -26 14 -39 42 -39
c39 0 94 69 164 209z" />
    <glyph glyph-name="z" unicode="z" horiz-adv-x="321" 
d="M380 186c-61 -63 -119 -118 -176 -167c10 -28 15 -45 15 -50c0 -112 -160 -289 -294 -289c-42 0 -72 26 -72 63c0 86 100 177 301 272c0 30 -8 45 -31 61c-28 -31 -60 -47 -98 -47c-20 0 -30 8 -30 24c0 26 37 44 89 44c5 0 17 -2 35 -5c14 18 33 44 58 80
c-77 0 -102 4 -102 53c0 8 8 31 22 68c-25 -21 -54 -42 -86 -65l-3 1l-1 3c2 25 101 103 129 103c24 0 36 -15 36 -44c0 -23 -16 -52 -47 -87c0 -9 8 -13 22 -13s28 1 43 5c65 112 90 142 112 142c13 0 19 -9 19 -28c0 -8 -26 -42 -78 -100c-58 -65 -92 -106 -102 -122
c27 -13 46 -30 58 -49c37 31 95 85 174 163zM144 -10c-134 -69 -263 -181 -263 -254c0 -23 11 -34 33 -34c46 0 123 96 230 288z" />
    <glyph glyph-name="braceleft" unicode="{" horiz-adv-x="296" 
d="M170 108h-1l1 68c0 34 -10 55 -31 63v21c29 6 29 13 30 72v62c0 66 26 93 99 105v-25c-45 -9 -59 -27 -59 -74c0 -19 1 -56 3 -84c0 -34 -8 -57 -24 -69c18 -15 26 -44 26 -85c-2 -49 -2 -58 -2 -70c0 -44 10 -57 56 -70v-23c-74 9 -98 36 -98 109z" />
    <glyph glyph-name="bar" unicode="|" horiz-adv-x="239" 
d="M161 0v510h39v-510h-39z" />
    <glyph glyph-name="braceright" unicode="}" horiz-adv-x="243" 
d="M256 164c0 -10 1 -42 3 -65c0 -68 -33 -92 -98 -101v24c44 12 58 33 58 83c-2 26 -3 73 -3 74c0 34 8 57 24 69c-21 17 -22 23 -24 98v64c0 44 -9 55 -55 64v24c72 -10 98 -41 98 -116v-74c0 -35 5 -43 31 -48v-21c-23 -9 -34 -34 -34 -75z" />
    <glyph glyph-name="asciitilde" unicode="~" horiz-adv-x="466" 
d="M368 130c-17 0 -42 7 -76 21c-32 14 -56 21 -69 21c-20 0 -42 -20 -68 -61l-37 37c32 53 67 80 105 80c17 0 44 -7 80 -22c34 -14 55 -20 66 -20c22 0 44 19 66 57l37 -38c-29 -50 -64 -75 -104 -75z" />
    <glyph glyph-name="quotesinglbase" unicode="&#x201a;" 
 />
    <glyph glyph-name="florin" unicode="&#x192;" 
 />
    <glyph glyph-name="quotedblbase" unicode="&#x201e;" 
 />
    <glyph glyph-name="ellipsis" unicode="&#x2026;" 
 />
    <glyph glyph-name="dagger" unicode="&#x2020;" 
 />
    <glyph glyph-name="daggerdbl" unicode="&#x2021;" 
 />
    <glyph glyph-name="circumflex" unicode="&#x2c6;" 
 />
    <glyph glyph-name="perthousand" unicode="&#x2030;" 
 />
    <glyph glyph-name="Scaron" unicode="&#x160;" 
 />
    <glyph glyph-name="guilsinglleft" unicode="&#x2039;" 
 />
    <glyph glyph-name="OE" unicode="&#x152;" 
 />
    <glyph glyph-name="quoteleft" unicode="&#x2018;" 
 />
    <glyph glyph-name="quoteright" unicode="&#x2019;" 
 />
    <glyph glyph-name="quotedblleft" unicode="&#x201c;" 
 />
    <glyph glyph-name="quotedblright" unicode="&#x201d;" 
 />
    <glyph glyph-name="bullet" unicode="&#x2022;" 
 />
    <glyph glyph-name="endash" unicode="&#x2013;" 
 />
    <glyph glyph-name="emdash" unicode="&#x2014;" 
 />
    <glyph glyph-name="tilde" unicode="&#x2dc;" 
 />
    <glyph glyph-name="trademark" unicode="&#x2122;" 
 />
    <glyph glyph-name="scaron" unicode="&#x161;" 
 />
    <glyph glyph-name="guilsinglright" unicode="&#x203a;" 
 />
    <glyph glyph-name="oe" unicode="&#x153;" 
 />
    <glyph glyph-name="Ydieresis" unicode="&#x178;" 
 />
    <glyph glyph-name="nonbreakingspace" unicode="&#xa0;" 
 />
    <glyph glyph-name="exclamdown" unicode="&#xa1;" 
 />
    <glyph glyph-name="cent" unicode="&#xa2;" 
 />
    <glyph glyph-name="sterling" unicode="&#xa3;" 
 />
    <glyph glyph-name="currency" unicode="&#xa4;" 
 />
    <glyph glyph-name="yen" unicode="&#xa5;" 
 />
    <glyph glyph-name="brokenbar" unicode="&#xa6;" 
 />
    <glyph glyph-name="section" unicode="&#xa7;" 
 />
    <glyph glyph-name="dieresis" unicode="&#xa8;" 
 />
    <glyph glyph-name="copyright" unicode="&#xa9;" 
 />
    <glyph glyph-name="ordfeminine" unicode="&#xaa;" 
 />
    <glyph glyph-name="guillemotleft" unicode="&#xab;" 
 />
    <glyph glyph-name="logicalnot" unicode="&#xac;" 
 />
    <glyph glyph-name="registered" unicode="&#xae;" 
 />
    <glyph glyph-name="macron" unicode="&#xaf;" 
 />
    <glyph glyph-name="degree" unicode="&#xb0;" 
 />
    <glyph glyph-name="plusminus" unicode="&#xb1;" 
 />
    <glyph glyph-name="twosuperior" unicode="&#xb2;" 
 />
    <glyph glyph-name="threesuperior" unicode="&#xb3;" 
 />
    <glyph glyph-name="acute" unicode="&#xb4;" 
 />
    <glyph glyph-name="mu1" unicode="&#xb5;" 
 />
    <glyph glyph-name="paragraph" unicode="&#xb6;" 
 />
    <glyph glyph-name="periodcentered" unicode="&#xb7;" 
 />
    <glyph glyph-name="cedilla" unicode="&#xb8;" 
 />
    <glyph glyph-name="onesuperior" unicode="&#xb9;" 
 />
    <glyph glyph-name="ordmasculine" unicode="&#xba;" 
 />
    <glyph glyph-name="guillemotright" unicode="&#xbb;" 
 />
    <glyph glyph-name="onequarter" unicode="&#xbc;" 
 />
    <glyph glyph-name="onehalf" unicode="&#xbd;" 
 />
    <glyph glyph-name="threequarters" unicode="&#xbe;" 
 />
    <glyph glyph-name="questiondown" unicode="&#xbf;" 
 />
    <glyph glyph-name="Agrave" unicode="&#xc0;" 
 />
    <glyph glyph-name="Aacute" unicode="&#xc1;" 
 />
    <glyph glyph-name="Acircumflex" unicode="&#xc2;" 
 />
    <glyph glyph-name="Atilde" unicode="&#xc3;" 
 />
    <glyph glyph-name="Adieresis" unicode="&#xc4;" 
 />
    <glyph glyph-name="Aring" unicode="&#xc5;" 
 />
    <glyph glyph-name="AE" unicode="&#xc6;" 
 />
    <glyph glyph-name="Ccedilla" unicode="&#xc7;" 
 />
    <glyph glyph-name="Egrave" unicode="&#xc8;" 
 />
    <glyph glyph-name="Eacute" unicode="&#xc9;" 
 />
    <glyph glyph-name="Ecircumflex" unicode="&#xca;" 
 />
    <glyph glyph-name="Edieresis" unicode="&#xcb;" 
 />
    <glyph glyph-name="Igrave" unicode="&#xcc;" 
 />
    <glyph glyph-name="Iacute" unicode="&#xcd;" 
 />
    <glyph glyph-name="Icircumflex" unicode="&#xce;" 
 />
    <glyph glyph-name="Idieresis" unicode="&#xcf;" 
 />
    <glyph glyph-name="Eth" unicode="&#xd0;" 
 />
    <glyph glyph-name="Ntilde" unicode="&#xd1;" 
 />
    <glyph glyph-name="Ograve" unicode="&#xd2;" 
 />
    <glyph glyph-name="Oacute" unicode="&#xd3;" 
 />
    <glyph glyph-name="Ocircumflex" unicode="&#xd4;" 
 />
    <glyph glyph-name="Otilde" unicode="&#xd5;" 
 />
    <glyph glyph-name="Odieresis" unicode="&#xd6;" 
 />
    <glyph glyph-name="multiply" unicode="&#xd7;" 
 />
    <glyph glyph-name="Oslash" unicode="&#xd8;" 
 />
    <glyph glyph-name="Ugrave" unicode="&#xd9;" 
 />
    <glyph glyph-name="Uacute" unicode="&#xda;" 
 />
    <glyph glyph-name="Ucircumflex" unicode="&#xdb;" 
 />
    <glyph glyph-name="Udieresis" unicode="&#xdc;" 
 />
    <glyph glyph-name="Yacute" unicode="&#xdd;" 
 />
    <glyph glyph-name="Thorn" unicode="&#xde;" 
 />
    <glyph glyph-name="germandbls" unicode="&#xdf;" 
 />
    <glyph glyph-name="agrave" unicode="&#xe0;" 
 />
    <glyph glyph-name="aacute" unicode="&#xe1;" 
 />
    <glyph glyph-name="acircumflex" unicode="&#xe2;" 
 />
    <glyph glyph-name="atilde" unicode="&#xe3;" 
 />
    <glyph glyph-name="adieresis" unicode="&#xe4;" 
 />
    <glyph glyph-name="aring" unicode="&#xe5;" 
 />
    <glyph glyph-name="ae" unicode="&#xe6;" 
 />
    <glyph glyph-name="ccedilla" unicode="&#xe7;" 
 />
    <glyph glyph-name="egrave" unicode="&#xe8;" 
 />
    <glyph glyph-name="eacute" unicode="&#xe9;" 
 />
    <glyph glyph-name="ecircumflex" unicode="&#xea;" 
 />
    <glyph glyph-name="edieresis" unicode="&#xeb;" 
 />
    <glyph glyph-name="igrave" unicode="&#xec;" 
 />
    <glyph glyph-name="iacute" unicode="&#xed;" 
 />
    <glyph glyph-name="icircumflex" unicode="&#xee;" 
 />
    <glyph glyph-name="idieresis" unicode="&#xef;" 
 />
    <glyph glyph-name="eth" unicode="&#xf0;" 
 />
    <glyph glyph-name="ntilde" unicode="&#xf1;" 
 />
    <glyph glyph-name="ograve" unicode="&#xf2;" 
 />
    <glyph glyph-name="oacute" unicode="&#xf3;" 
 />
    <glyph glyph-name="ocircumflex" unicode="&#xf4;" 
 />
    <glyph glyph-name="otilde" unicode="&#xf5;" 
 />
    <glyph glyph-name="odieresis" unicode="&#xf6;" 
 />
    <glyph glyph-name="divide" unicode="&#xf7;" 
 />
    <glyph glyph-name="oslash" unicode="&#xf8;" 
 />
    <glyph glyph-name="ugrave" unicode="&#xf9;" 
 />
    <glyph glyph-name="uacute" unicode="&#xfa;" 
 />
    <glyph glyph-name="ucircumflex" unicode="&#xfb;" 
 />
    <glyph glyph-name="udieresis" unicode="&#xfc;" 
 />
    <glyph glyph-name="yacute" unicode="&#xfd;" 
 />
    <glyph glyph-name="thorn" unicode="&#xfe;" 
 />
    <glyph glyph-name="ydieresis" unicode="&#xff;" 
 />
  </font>
</defs>
</svg>
